<?xml version="1.0" encoding="UTF-8"?>
<!DOCTYPE svg PUBLIC "-//W3C//DTD SVG 1.1//EN" "http://www.w3.org/Graphics/SVG/1.1/DTD/svg11.dtd">
<svg xmlns="http://www.w3.org/2000/svg" xml:space="preserve" width="0.166661in" height="0.166661in" version="1.1" style="shape-rendering:geometricPrecision; text-rendering:geometricPrecision; image-rendering:optimizeQuality; fill-rule:evenodd; clip-rule:evenodd"
viewBox="0 0 166.66 166.66"
 xmlns:xlink="http://www.w3.org/1999/xlink">
 <defs>
  <style type="text/css">
   <![CDATA[
    .fil0 { fill: #9A0000; }

    @media (prefers-color-scheme: dark) {
      .fil0 { fill: #f5c97a; }
    }

    @media (prefers-color-scheme: light) {
      .fil0 { fill: #9A0000; }
    }
   ]]>
  </style>
 </defs>
 <g id="Layer_x0020_1">
  <metadata id="CorelCorpID_0Corel-Layer"/>
  <path class="fil0" d="M153.96 101.12c0,0 15.81,-26.36 1.49,-43.54 -23.35,-28.01 -55.59,-10.07 -55.59,-10.07 3.13,-3.54 7.05,-6.8 14.38,-8.87 0,0 -10.65,-19.23 -36.19,-15.57 -36.14,5.17 -44.33,39.78 -44.33,39.78 -0.26,-5.24 -0.04,-10.64 1.68,-16.54 0,0 -13.83,1.59 -21.99,11.18 -16.9,19.85 2.5,42.18 2.5,42.18 0,0 -26.44,-15.76 -11.12,-43.9 10.26,-18.85 31.67,-16.21 31.67,-16.21 0,0 12.55,-26.56 41.04,-28.94 39.8,-3.32 46.33,25.04 46.33,25.04 0,0 24.74,-4.78 38.13,18.4 14.13,24.48 -7.98,47.06 -7.98,47.06zm-87.86 -1.3c29.71,-5.37 55.7,-3.54 75.34,10.58 -4.44,7.98 -6.15,19.07 -2.52,28.72 -5.18,-5.07 -8.2,-11.74 -8,-25.46 -14.13,-10.83 -44.12,-14.78 -64.82,-13.85zm-28.9 11.94c6.42,8.08 10.04,20.63 7.85,33 35.4,-12.36 64.61,-7.06 87.09,5.9 -33.96,-7.13 -66.69,-8.19 -96.35,5.65 3.51,-14.09 4.35,-28.85 1.41,-44.55z"/>
 </g>
</svg>
