<?xml version="1.0" encoding="UTF-8"?>
<!DOCTYPE svg PUBLIC "-//W3C//DTD SVG 1.1//EN" "http://www.w3.org/Graphics/SVG/1.1/DTD/svg11.dtd">
<!-- Creator: CorelDRAW -->
<svg xmlns="http://www.w3.org/2000/svg" xml:space="preserve" width="0.166661in" height="0.166661in" version="1.1" style="shape-rendering:geometricPrecision; text-rendering:geometricPrecision; image-rendering:optimizeQuality; fill-rule:evenodd; clip-rule:evenodd"
viewBox="0 0 166.66 166.66"
 xmlns:xlink="http://www.w3.org/1999/xlink"
 xmlns:xodm="http://www.corel.com/coreldraw/odm/2003">
 <defs>
  <style type="text/css">
   <![CDATA[
    .fil0 {fill:#4D4D4D}
    .fil1 {fill:white}
   ]]>
  </style>
 </defs>
 <g id="Layer_x0020_1">
  <metadata id="CorelCorpID_0Corel-Layer"/>
  <circle class="fil0" cx="83.33" cy="83.33" r="83.33"/>
  <path class="fil1" d="M135.43 96.45c0,0 11.66,-19.44 1.1,-32.11 -17.22,-20.66 -41.01,-7.42 -41.01,-7.42 2.31,-2.61 5.2,-5.02 10.61,-6.54 0,0 -7.85,-14.19 -26.69,-11.49 -26.66,3.82 -32.7,29.34 -32.7,29.34 -0.19,-3.87 -0.02,-7.85 1.24,-12.2 0,0 -10.2,1.17 -16.22,8.25 -12.46,14.64 1.84,31.11 1.84,31.11 0,0 -19.5,-11.62 -8.2,-32.38 7.57,-13.91 23.35,-11.96 23.35,-11.96 0,0 9.26,-19.59 30.27,-21.35 29.35,-2.45 34.18,18.47 34.18,18.47 0,0 18.25,-3.52 28.12,13.57 10.43,18.05 -5.88,34.71 -5.88,34.71zm-64.81 -0.96c21.92,-3.96 41.09,-2.61 55.57,7.81 -3.28,5.88 -4.54,14.06 -1.86,21.19 -3.81,-3.74 -6.04,-8.66 -5.9,-18.78 -10.42,-7.98 -32.54,-10.9 -47.81,-10.21zm-21.31 8.81c4.74,5.96 7.41,15.21 5.79,24.34 26.11,-9.11 47.66,-5.21 64.23,4.35 -25.05,-5.26 -49.19,-6.04 -71.07,4.17 2.59,-10.39 3.21,-21.28 1.04,-32.86z"/>
 </g>
</svg>
